<?xml version="1.0" encoding="UTF-8" standalone="no"?>
<svg
   xmlns:dc="http://purl.org/dc/elements/1.1/"
   xmlns:cc="http://creativecommons.org/ns#"
   xmlns:rdf="http://www.w3.org/1999/02/22-rdf-syntax-ns#"
   xmlns:svg="http://www.w3.org/2000/svg"
   xmlns="http://www.w3.org/2000/svg"
   xmlns:sodipodi="http://sodipodi.sourceforge.net/DTD/sodipodi-0.dtd"
   xmlns:inkscape="http://www.inkscape.org/namespaces/inkscape"
   version="1.1"
   id="svg2"
   xml:space="preserve"
   width="5333.3335"
   height="5333.3335"
   viewBox="0 0 5333.3335 5333.3335"
   sodipodi:docname="barbell.eps"><metadata
     id="metadata8"><rdf:RDF><cc:Work
         rdf:about=""><dc:format>image/svg+xml</dc:format><dc:type
           rdf:resource="http://purl.org/dc/dcmitype/StillImage" /></cc:Work></rdf:RDF></metadata><defs
     id="defs6" /><sodipodi:namedview
     pagecolor="#ffffff"
     bordercolor="#666666"
     borderopacity="1"
     objecttolerance="10"
     gridtolerance="10"
     guidetolerance="10"
     inkscape:pageopacity="0"
     inkscape:pageshadow="2"
     inkscape:window-width="640"
     inkscape:window-height="480"
     id="namedview4" /><g
     id="g10"
     inkscape:groupmode="layer"
     inkscape:label="ink_ext_XXXXXX"
     transform="matrix(1.3333333,0,0,-1.3333333,0,5333.3333)"><g
       id="g12"
       transform="scale(0.1)"><path
         d="M 0,0 H 40000 V 40000 H 0 Z"
         style="fill:#00edf9;fill-opacity:1;fill-rule:nonzero;stroke:none"
         id="path14" /><path
         d="m 25379.7,21061.2 v -6611.6 c 0,-507.2 -180.4,-974 -480,-1340.4 -390,-476 -981.6,-781.2 -1641.2,-781.2 h -6158.4 c -654.8,0 -1242.4,300.4 -1632.8,770.4 -304.8,368 -488.8,839.2 -488.8,1351.2 v 6611.6 c 0,531.6 198.4,1018.8 524.4,1392 389.6,446.4 962,729.2 1597.2,729.2 h 6158.4 c 620,0 1180,-269.6 1568.8,-697.2 342.8,-377.2 552.4,-877.2 552.4,-1424"
         style="fill:#ffffff;fill-opacity:1;fill-rule:nonzero;stroke:none"
         id="path16" /><path
         d="m 17100.1,23022.5 c -1081.6,0 -1961.6,-879.9 -1961.6,-1961.5 v -6611.4 c 0,-1081.6 880,-1961.5 1961.6,-1961.5 h 6158.3 c 1081.6,0 1961.5,879.9 1961.5,1961.5 V 21061 c 0,1081.6 -879.9,1961.5 -1961.5,1961.5 h -6158.3 m 6158.3,-10854.4 h -6158.3 c -1258.1,0 -2281.6,1023.5 -2281.6,2281.5 V 21061 c 0,1258 1023.5,2281.6 2281.6,2281.6 h 6158.3 c 1258,0 2281.5,-1023.6 2281.5,-2281.6 v -6611.4 c 0,-1258 -1023.5,-2281.5 -2281.5,-2281.5"
         style="fill:#371a45;fill-opacity:1;fill-rule:nonzero;stroke:none"
         id="path18" /><path
         d="m 25557.9,6467.2 c -2.4,-25.2 -6,-49.6 -10.8,-73.6 -129.2,-730.8 -1026.8,-992 -2642.4,-790.8 -732,91.2 -1743.6,199.2 -2010.4,754.8 -532.4,1108.8 11.2,3633.2 -52,5071.2 v 2.4 c 0,0 -294,-34.8 -658.8,-34.8 -364.8,0 -658.8,34.8 -658.8,34.8 -0.4,-11.6 -0.8,-23.6 -1.2,-35.2 -54,-1439.2 477.6,-3937.6 -51.2,-5038.4 -266.8,-555.6 -1277.6,-663.6 -2009.6,-754.8 -1618,-201.2 -2515.6,60.4 -2643.6,793.2 -4.4,23.2 -7.6,46.8 -10.4,71.2 -93.2,892.8 1213.2,1307.6 1213.2,1307.6 0,0 -284.8,2175.2 -472.8,3885.2 -94.8,864 -102,1764 -52.8,2649.2 28.8,525.2 77.6,1045.2 139.6,1549.6 148.4,1210.8 372,2331.6 579.2,3217.2 82.8,353.2 162.8,668.8 234.4,938 46.8,177.2 90.4,334.4 128.4,468.8 h -1634 c 0,0 624.8,1379.2 1519.6,1987.6 200,136 7417.6,136 7617.6,0 894.8,-608.4 1519.2,-1987.6 1519.2,-1987.6 h -1811.2 c 38,-134.4 81.6,-291.6 128.8,-468.8 71.6,-269.2 151.6,-584.8 234.4,-938 206.8,-885.2 430.4,-2005.6 578.4,-3215.6 62,-503.6 110.4,-1023.2 139.6,-1547.6 49.2,-886.4 42.4,-1787.6 -52.8,-2652.8 -187.6,-1710 -472,-3885.2 -472,-3885.2 0,0 1305.6,-414.8 1212.4,-1307.6"
         style="fill:#ffffff;fill-opacity:1;fill-rule:nonzero;stroke:none"
         id="path20" /><path
         d="m 21002.5,11611.3 0.1,-180 c 22.4,-509.3 -29.9,-1145.6 -85.2,-1819.2 -96.4,-1173.6 -205.7,-2503.9 121.4,-3185.4 220.5,-459 1141.8,-573 1814.5,-656.2 l 71.2,-8.8 c 1524.8,-189.7 2354.3,32.2 2465.4,659.7 4.3,22.3 7.1,42.1 9.1,62.2 v 0.1 c 78.6,752 -1090.2,1134.7 -1102,1138.5 l -127.3,40.7 17.2,132.5 c 2.8,21.7 286.4,2193.4 471.8,3881.9 420,3822.2 -913.8,8416.8 -1148.1,9184.2 h -6654 c -234.3,-767.4 -1567.7,-5362 -1148.1,-9184.2 185.4,-1688.6 469.4,-3860.2 472.2,-3881.9 l 17.4,-132.7 -127.6,-40.6 c -11.7,-3.7 -1180.9,-386.4 -1102.4,-1138.4 2.1,-19.5 5,-39.2 8.6,-58.4 110.1,-630.7 939.8,-853.5 2466.5,-663.6 l 70.9,8.8 c 672.6,83.2 1593.8,197.1 1814.3,656.2 327.2,681.6 218,2012.8 121.6,3187.3 -54.1,659.1 -105.2,1281.5 -86.1,1788.1 l 7.8,208.4 172.2,-20.3 c 2.8,-0.3 289.8,-33.7 639.9,-33.7 350.2,0 637.1,33.4 640,33.7 l 178.7,21.1 M 23848,5378.1 c -288.3,0 -609.3,22 -963.1,66 l -70.8,8.8 c -787.5,97.4 -1767.6,218.7 -2063.8,835.3 -364.7,759.7 -256.5,2076.6 -151.9,3350.2 48.6,591.1 94.8,1153.1 88.9,1617.8 -123.5,-9.5 -302.4,-19.7 -503.5,-19.7 -201,0 -379.9,10.2 -503.4,19.7 -6,-463.9 40,-1025 88.5,-1616 104.6,-1274.4 212.8,-2592.2 -152,-3352 -296.2,-616.7 -1276.1,-737.9 -2063.6,-835.3 l -70.6,-8.8 c -1727.3,-214.7 -2676.3,96.3 -2821,924.5 -4.7,25.6 -8.7,53.2 -11.8,81.3 -87.9,842 847.4,1293 1197,1431.2 -63.6,490.8 -296.6,2305 -456.5,3761.3 -464.6,4232.9 1179.6,9377 1196.2,9428.4 l 35.9,110.7 h 7122.2 l 35.9,-110.7 c 16.6,-51.4 1661.3,-5195.5 1196.2,-9428.4 -159.9,-1456.3 -392.6,-3270.5 -456.1,-3761.3 349.5,-138.2 1284.5,-589.1 1196.6,-1430.7 -3.3,-31.4 -7.5,-60.1 -12.8,-87.6 -115.8,-654.5 -739.3,-984.7 -1856.5,-984.7"
         style="fill:#371a45;fill-opacity:1;fill-rule:nonzero;stroke:none"
         id="path22" /><path
         d="m 16499.3,5696.1 c -867.4,0 -1370.6,213.5 -1501.1,638.8 435.1,-134.1 954.5,-194.8 1471,-194.8 1081.1,0 2150,265.5 2408.3,677.6 516.9,824.6 600.7,1648.8 -203.3,2676.2 -681.8,871.5 -829.9,2170.8 -859.2,2544.3 111.7,-80.7 225.9,-158.8 345.7,-227.4 68,-42.2 139.2,-78 209.2,-116.8 71.5,-35.3 142.4,-72.6 215.5,-104.8 145.2,-67 293.7,-127.1 445.2,-179.8 75.8,-26.4 152.2,-51.1 229.5,-74.1 34,-9.8 67.3,-19.3 101,-28.4 -9.9,-488.4 38.2,-1074.6 88.9,-1692.9 96.4,-1174.5 205.6,-2505.7 -121.6,-3187.3 -220.5,-459.1 -1141.7,-573 -1814.3,-656.2 l -70.9,-8.8 c -351.8,-43.8 -666.4,-65.6 -943.9,-65.6"
         style="fill:#b9afbe;fill-opacity:1;fill-rule:nonzero;stroke:none"
         id="path24" /><path
         d="m 16512,5537.4 c -1020.3,0 -1592.4,284.7 -1692.7,858.8 57.8,-21.9 117.5,-42.3 178.9,-61.3 130.5,-425.3 633.7,-638.8 1501.1,-638.8 277.5,0 592.1,21.8 943.9,65.6 l 70.9,8.8 c 672.6,83.2 1593.8,197.1 1814.3,656.2 327.2,681.6 218,2012.8 121.6,3187.3 -50.7,618.3 -98.8,1204.5 -88.9,1692.9 44.3,-11.9 89.5,-23.2 138.3,-33.7 4.4,-1 9.1,-1.8 13.6,-2.3 2.5,-0.4 5,-0.6 7.5,-0.8 -21.4,-1454.9 465.6,-3843.2 -47.8,-4912.6 -266.9,-555.6 -1278,-663.5 -2009.8,-754.6 -351,-43.6 -668.2,-65.5 -950.9,-65.5"
         style="fill:#371a45;fill-opacity:1;fill-rule:nonzero;stroke:none"
         id="path26" /><path
         d="m 23868.9,5696 c -277.5,0 -592.5,21.9 -944.4,65.7 l -71.2,8.8 c -672.7,83.2 -1594,197.2 -1814.5,656.2 -327.1,681.5 -217.8,2011.8 -121.4,3185.4 50.9,620.2 99.3,1208.8 89.1,1695.7 32.6,8.8 64.8,18 97.6,27.5 77.2,23 153.7,47.7 229.5,74.1 151.5,52.7 299.9,112.8 445.1,179.8 73.1,32.2 144,69.5 215.6,104.8 70,38.8 141.2,74.6 209.2,116.8 126.2,72.2 246.2,155 363.6,240.4 29.5,-309.4 58.8,-1364.4 -727.6,-2471.3 -755.4,-1063.6 -810.4,-1909.7 -293.5,-2733.8 246.5,-393.3 1312.9,-630.8 2427.6,-630.8 478.5,0 965.5,43.7 1400.9,137.6 C 25254,5915.7 24749.2,5696 23868.9,5696"
         style="fill:#b9afbe;fill-opacity:1;fill-rule:nonzero;stroke:none"
         id="path28" /><path
         d="m 23855.6,5537.3 c -282.7,0 -599.8,21.9 -950.9,65.6 -731.8,91.1 -1743.3,199 -2010.2,754.6 -513.3,1069.4 -26.3,3454.6 -47.4,4912.9 5.9,0.6 11.8,1.5 17.7,2.8 50.1,10.8 96.3,22.4 141.7,34.6 10.2,-486.9 -38.2,-1075.5 -89.1,-1695.7 -96.4,-1173.6 -205.7,-2503.9 121.4,-3185.4 220.5,-459 1141.8,-573 1814.5,-656.2 l 71.2,-8.8 c 351.9,-43.8 666.9,-65.7 944.4,-65.7 880.3,0 1385.1,219.7 1505.6,656.9 58.6,12.6 116.3,26.2 172.9,40.7 -101.2,-572.1 -673.2,-856.3 -1691.8,-856.3"
         style="fill:#371a45;fill-opacity:1;fill-rule:nonzero;stroke:none"
         id="path30" /><path
         d="m 23000.1,8840.7 c -567.9,0 -1304.1,106.9 -2247.3,414.6 -84,27.4 -129.9,117.7 -102.5,201.7 27.4,84 117.6,130 201.7,102.5 2786.3,-908.8 3602.3,25.4 3610.2,34.9 55.9,67.4 156.3,78.1 224.4,23 68.1,-55.1 79.9,-153.9 25.7,-222.6 -25.3,-32.1 -457.7,-554.1 -1712.2,-554.1"
         style="fill:#371a45;fill-opacity:1;fill-rule:nonzero;stroke:none"
         id="path32" /><path
         d="m 17241.3,8772.4 c -598.5,0 -1174,107.4 -1543.9,433.5 -66.3,58.4 -72.6,159.5 -14.2,225.8 58.4,66.3 159.5,72.7 225.8,14.2 926.7,-816.9 3604.4,23.9 3631.4,32.4 84.1,26.8 174.2,-19.6 201,-103.8 26.9,-84.2 -19.6,-174.2 -103.7,-201 -76.3,-24.4 -1276.1,-401.1 -2396.4,-401.1"
         style="fill:#371a45;fill-opacity:1;fill-rule:nonzero;stroke:none"
         id="path34" /><path
         d="m 19499.4,11273.2 c -86,18.6 -160.8,39.4 -239.3,62.1 -77.3,23 -153.7,47.7 -229.5,74.1 -151.5,52.7 -300,112.8 -445.2,179.8 -73.1,32.2 -144,69.5 -215.5,104.8 -70,38.8 -141.2,74.6 -209.2,116.8 -138.5,79.3 -269.5,171.3 -397.9,265.4 -35.6,26.1 -43.3,76.2 -17.2,111.8 24.7,33.7 70.7,42.4 105.8,21.3 l 2.9,-1.8 c 130.5,-79.4 262.2,-156.2 400.7,-220.4 67.8,-34.5 138.9,-62.8 208.2,-93.9 71.1,-27.7 141.1,-57.3 213.2,-81.9 143,-51.7 288.5,-96.6 435.5,-134 73.5,-18.7 147.2,-35.7 221.1,-51 72.8,-14.6 150,-28.7 217.6,-37.2 l 2.8,-0.4 c 87.8,-11.1 149.9,-91.3 138.7,-179.1 -11.1,-87.8 -91.3,-149.9 -179.1,-138.7 -4.5,0.5 -9.2,1.3 -13.6,2.3"
         style="fill:#371a45;fill-opacity:1;fill-rule:nonzero;stroke:none"
         id="path36" /><path
         d="m 20813.6,11589.1 c 67.5,8.5 144.8,22.6 217.6,37.2 73.8,15.3 147.6,32.3 221.1,51 146.9,37.4 292.4,82.3 435.5,134 72.1,24.6 142.1,54.2 213.2,81.9 69.3,31.1 140.3,59.4 208.2,93.9 138.4,64.2 270.1,141 400.6,220.4 l 2.7,1.6 c 37.8,22.9 87,10.9 109.9,-26.8 21.7,-35.7 11.9,-81.8 -21,-106.1 -128.4,-94.1 -259.4,-186.1 -397.9,-265.4 -68,-42.2 -139.2,-78 -209.2,-116.8 -71.6,-35.3 -142.5,-72.6 -215.6,-104.8 -145.2,-67 -293.6,-127.1 -445.1,-179.8 -75.8,-26.4 -152.3,-51.1 -229.5,-74.1 -78.6,-22.7 -153.3,-43.5 -239.3,-62.1 -86.5,-18.7 -171.7,36.3 -190.4,122.7 -18.7,86.5 36.2,171.8 122.7,190.5 4.5,0.9 8.9,1.7 13.4,2.3 l 3.1,0.4"
         style="fill:#371a45;fill-opacity:1;fill-rule:nonzero;stroke:none"
         id="path38" /><path
         d="m 18332.4,7314.6 c -28.2,0 -56.8,7.4 -82.7,23.1 -838.1,506.9 -2186.8,281.8 -2200.4,279.4 -87.2,-14.9 -169.8,43.4 -184.9,130.4 -15.1,87.1 43.2,169.8 130.3,184.9 59.9,10.4 1479.3,248.4 2420.6,-320.9 75.6,-45.7 99.8,-144.1 54.1,-219.7 -30.1,-49.7 -82.9,-77.2 -137,-77.2"
         style="fill:#371a45;fill-opacity:1;fill-rule:nonzero;stroke:none"
         id="path40" /><path
         d="m 22035.5,7314.6 c -54.2,0 -107,27.5 -137.1,77.2 -45.7,75.6 -21.5,174 54.1,219.7 941.4,569.3 2360.7,331.4 2420.7,320.9 87,-15.1 145.3,-97.8 130.2,-184.9 -15.1,-87 -97.6,-145.2 -184.9,-130.4 -13.5,2.3 -1362.2,227.5 -2200.4,-279.4 -25.9,-15.7 -54.4,-23.1 -82.6,-23.1"
         style="fill:#371a45;fill-opacity:1;fill-rule:nonzero;stroke:none"
         id="path42" /><path
         d="m 20183.8,11556.5 c -350.1,0 -637.1,33.4 -639.9,33.7 l -15,1.8 c -62.1,8.6 -130.8,21.2 -195.9,34.3 -73.9,15.3 -147.6,32.3 -221.1,51 -147,37.4 -292.5,82.3 -435.5,134 -72.1,24.6 -142.1,54.2 -213.2,81.9 -69.3,31.1 -140.4,59.4 -208.2,93.9 -49,22.7 -97.1,47 -144.6,72.4 395.3,-55.9 1238.1,-162.2 1930.5,-162.2 721.1,0 1774.7,115.3 2225.3,168.9 -51.6,-27.8 -103.8,-54.4 -157,-79.1 -67.9,-34.5 -138.9,-62.8 -208.2,-93.9 -71.1,-27.7 -141.1,-57.3 -213.2,-81.9 -143.1,-51.7 -288.6,-96.6 -435.5,-134 -73.5,-18.7 -147.3,-35.7 -221.1,-51 -72.8,-14.6 -150.1,-28.7 -217.6,-37.2 l -0.5,-0.1 c -55.3,-6 -317.2,-32.5 -629.3,-32.5"
         style="fill:#b9afbe;fill-opacity:1;fill-rule:nonzero;stroke:none"
         id="path44" /><path
         d="m 20232.2,11430.2 c -29.9,0 -59.9,0.3 -90.3,0.9 -158.5,3.3 -309,13.5 -451.4,29.1 -12.8,66.2 -66.7,119.6 -137.1,128.5 l -2.8,0.4 c -7.2,0.9 -14.4,1.8 -21.7,2.9 l 15,-1.8 c 2.8,-0.3 289.8,-33.7 639.9,-33.7 312.1,0 574,26.5 629.3,32.5 l -2.6,-0.3 c -4.5,-0.6 -8.9,-1.4 -13.4,-2.3 -67.2,-14.6 -115.4,-69.4 -124.7,-133.7 -140.1,-14.4 -286.9,-22.5 -440.2,-22.5"
         style="fill:#371a45;fill-opacity:1;fill-rule:nonzero;stroke:none"
         id="path46" /><path
         d="m 19690.5,11460.2 c -1182.7,129.8 -1805.1,632.7 -1805.1,632.7 0,0 84,-13.5 225,-33.4 47.5,-25.4 95.6,-49.7 144.6,-72.4 67.8,-34.5 138.9,-62.8 208.2,-93.9 71.1,-27.7 141.1,-57.3 213.2,-81.9 143,-51.7 288.5,-96.6 435.5,-134 73.5,-18.7 147.2,-35.7 221.1,-51 65.1,-13.1 133.8,-25.7 195.9,-34.3 7.3,-1.1 14.5,-2 21.7,-2.9 l 2.8,-0.4 c 70.4,-8.9 124.3,-62.3 137.1,-128.5"
         style="fill:#371a45;fill-opacity:1;fill-rule:nonzero;stroke:none"
         id="path48" /><path
         d="m 20672.4,11452.7 c 9.3,64.3 57.5,119.1 124.7,133.7 4.5,0.9 8.9,1.7 13.4,2.3 l 2.6,0.3 0.5,0.1 c 67.5,8.5 144.8,22.6 217.6,37.2 73.8,15.3 147.6,32.3 221.1,51 146.9,37.4 292.4,82.3 435.5,134 72.1,24.6 142.1,54.2 213.2,81.9 69.3,31.1 140.3,59.4 208.2,93.9 53.2,24.7 105.4,51.3 157,79.1 136.3,16.2 217.5,26.7 217.5,26.7 0,0 -684.5,-524.3 -1811.3,-640.2"
         style="fill:#371a45;fill-opacity:1;fill-rule:nonzero;stroke:none"
         id="path50" /><path
         d="m 22204.9,13264.4 h -4401.2 c -442.8,0 -805.6,362.4 -805.6,806 v 256 c -243.7,-37 -504.3,-51.5 -763.3,-51.5 -196,0 -391.1,8.3 -577.2,21.5 6.3,112.5 13.5,225.3 21.5,337.2 5.4,-0.7 10.8,-1.4 16.2,-2.1 295.1,-35.7 639.8,-64.3 986.4,-64.3 174,0 348.6,7.2 517.5,24.4 v -4.6 c 0,-504.6 410.5,-915.1 915.1,-915.1 h 3817.1 c 504.5,0 915.1,410.5 915.1,915.1 v 44 c 252.1,-46.1 526.5,-63.8 799.6,-63.8 346.6,0 691.4,28.6 986.5,64.3 18.6,2.3 37,5.1 55.2,8.5 8.2,-113.1 15.5,-226.9 21.8,-340.6 -198.3,-14.9 -407.7,-24.4 -618.1,-24.4 -19.2,0 -38.3,0 -57.4,0.2 -28,0 -56,0.4 -84,1.6 -29.6,0.4 -59.6,1.2 -88.8,2.4 -20,0 -40,1.2 -58.8,2 -23.6,1.2 -46.8,2.8 -70,4 -29.2,2 -58.8,3.6 -87.6,6 h -2.4 c -28.8,2 -58.4,4.4 -87.6,7.6 -18.8,2 -38.4,4 -57.2,6 -16.4,1.2 -32.4,3.6 -48.4,5.2 -24.8,2.8 -50,6.4 -74.4,9.6 -23.6,3.6 -46.4,6.8 -69.2,10.8 -4.8,0.4 -9.2,0.8 -13.6,2.4 -26.8,3.6 -53.6,8.4 -79.2,13.6 -26.8,4.4 -52.8,9.6 -78.4,15.2 -2,0.4 -4.4,0.8 -6.8,1.2 -14.4,3.2 -28.8,6.4 -42.8,10 -15.6,3.2 -31.6,7.2 -47.2,11.2 h -0.4 l -26,6.8 v -320.4 c 0,-443.6 -362.8,-806 -806.4,-806 m -5171.5,3028.9 c 56,20.3 111.2,42.5 165.8,66.5 v -57.7 c -54.5,-3.5 -109.9,-6.4 -165.8,-8.8 m 5977.9,17.4 c -56.2,4.6 -111.2,9.9 -164.8,16 v 295.6 c 0,84.6 -11.6,166.6 -33.2,244.4 45.9,-39 93.2,-76.1 141.8,-111.2 36.3,-91.4 56.2,-190.9 56.2,-294.7 v -150.1"
         style="fill:#b9afbe;fill-opacity:1;fill-rule:nonzero;stroke:none"
         id="path52" /><path
         d="m 15657.6,14296.4 c -54.6,3.9 -108.3,8.2 -161.1,12.8 6.6,121.2 14.4,242.2 23.1,362.8 51.2,-17.8 104.6,-30.7 159.5,-38.4 -8,-111.9 -15.2,-224.7 -21.5,-337.2 m 9052,3 c -6.3,113.7 -13.6,227.5 -21.8,340.6 54.8,10.3 107.9,25.8 158.7,46.3 9,-124.1 17.1,-248.7 24,-373.5 -52.6,-4.8 -106.3,-9.3 -160.9,-13.4"
         style="fill:#371a45;fill-opacity:1;fill-rule:nonzero;stroke:none"
         id="path54" /><path
         d="m 17872.8,14905.7 c -599.1,-242.6 -1526.2,-191.8 -2158.3,-115.3 -379.1,45.8 -645.2,395.7 -589.4,773.4 51,344.7 354.4,595.4 702.5,579.1 591.2,-27.7 1478,-40.7 2039.6,83.9 l 5.6,-1321.1"
         style="fill:#ffffff;fill-opacity:1;fill-rule:nonzero;stroke:none"
         id="path56" /><path
         d="m 16676.6,14887.7 c -286.1,0 -602.8,20.3 -942.9,61.5 -139.8,16.9 -263.9,87.9 -349.4,200 -85.7,112.3 -121.6,251.3 -100.9,391.2 6.3,42.6 17.5,83.1 33,121.3 103.4,-103.8 241.1,-175 398.1,-194.1 282.6,-34.2 624.1,-63.3 968.9,-63.3 173.5,0 347.8,7.4 515.8,25.1 V 14914 c -159.6,-17.5 -334.5,-26.3 -522.6,-26.3"
         style="fill:#b9afbe;fill-opacity:1;fill-rule:nonzero;stroke:none"
         id="path58" /><path
         d="m 17872.8,14905.6 h 0.5 -0.5 m -2077.5,1078 c -256.2,0 -473.9,-186.6 -511.9,-443.2 -20.7,-139.9 15.2,-278.9 100.9,-391.2 85.5,-112.1 209.6,-183.1 349.4,-200 903.7,-109.4 1642.1,-72.1 2079,104.8 129,52.2 166.4,261.2 176.4,348.6 35.4,307.4 -57.9,592.2 -116.7,661.7 -569.6,-119.7 -1427.6,-110.5 -2052.3,-81.2 -8.3,0.4 -16.6,0.5 -24.8,0.5 m 886.4,-1416.4 c -346.6,0 -691.3,28.6 -986.4,64.3 -226.3,27.4 -427.1,142.3 -565.4,323.5 -138.6,181.6 -196.5,406.1 -163,632.2 63.2,428.2 436.6,735.7 868.2,715.5 616.1,-28.8 1462.7,-38.3 1997.5,80.3 84,18.7 292.8,19.2 415.8,-376.4 124.9,-401.7 111,-1076.6 -315.6,-1249.3 -351.4,-142.3 -802.9,-190.1 -1251.1,-190.1"
         style="fill:#371a45;fill-opacity:1;fill-rule:nonzero;stroke:none"
         id="path60" /><path
         d="m 24613.3,14790.4 c -296.5,-35.9 -658.5,-66.2 -1020.8,-62.8 -25,0 -49.6,0.4 -74.5,1.1 -26.1,0.4 -52.6,1.2 -78.7,2.3 -17.8,0.4 -35.2,1.2 -52.2,1.9 -20.8,1.1 -41.2,2.3 -61.7,3.4 -26,1.5 -52.1,3.4 -77.9,5.3 h -1.8 c -25.8,1.9 -51.9,4.2 -77.6,6.8 -17,1.5 -34,3.4 -50.7,5.3 -14.3,1.1 -28.7,3 -42.7,4.5 -22.3,2.7 -44.6,5.7 -66.2,8.7 -20.8,3.1 -41.2,6.1 -61.3,9.5 -4.1,0.4 -8.3,0.8 -12.1,1.9 -23.8,3.4 -47.3,7.6 -70.3,12.1 -23.5,4.2 -46.6,8.7 -69.3,13.6 -1.8,0.4 -3.7,0.8 -5.6,1.1 -12.9,3.1 -25.7,5.7 -38.2,8.8 -14,3 -28,6.4 -42,10.2 h -0.4 c -42.7,10.6 -84.7,22.7 -125.5,35.5 -22,6.8 -43.9,14.4 -65.5,22 -21.5,7.5 -42.7,15.8 -63.2,24.2 l 2.7,634.2 3,686.9 c 143.7,-32.1 309,-54.8 484.9,-70.7 511.4,-46.5 1114.7,-33.7 1554.5,-13.3 10.6,0.4 21.2,0.8 32.2,0.8 334.3,0 621,-245.8 670.2,-579.8 56,-377.9 -210.3,-727.7 -589.3,-773.5"
         style="fill:#ffffff;fill-opacity:1;fill-rule:nonzero;stroke:none"
         id="path62" /><path
         d="m 23651.3,14887.6 c -306.5,0 -577.7,23.5 -804.8,69.8 v 513.5 c 6.1,-1.2 12.2,-2.3 18.4,-3.3 22.8,-4.4 46.4,-8.8 70.4,-12 3.6,-1.2 7.6,-1.6 12,-2 20,-3.2 40.4,-6.4 61.2,-9.6 21.6,-2.8 44,-6 66,-8.4 14,-1.6 28.4,-3.6 42.8,-4.8 16.8,-1.6 34,-3.6 50.8,-5.2 25.6,-2.8 52,-4.8 77.6,-6.8 h 2 c 25.6,-2 51.6,-3.6 77.6,-5.2 20.4,-1.2 41.2,-2.4 62,-3.6 16.8,-0.8 34.4,-1.2 52,-1.6 26,-1.2 52.4,-2 78.8,-2.4 24.8,-0.8 49.6,-1.2 74.4,-1.2 17.8,-0.2 35.7,-0.2 53.5,-0.2 344.4,0 685.5,28.8 967.3,63 157.1,19 294.9,90.2 398.2,193.9 15.5,-38.1 26.7,-78.6 33,-121.1 20.6,-139.9 -15.2,-278.9 -100.9,-391.2 -85.5,-112.1 -209.6,-183.1 -349.4,-200 -340.2,-41.2 -656.9,-61.6 -942.9,-61.6"
         style="fill:#b9afbe;fill-opacity:1;fill-rule:nonzero;stroke:none"
         id="path64" /><path
         d="m 22515.1,15054 c 437,-176.9 1175.4,-214.2 2079.1,-104.8 139.8,16.9 263.9,87.9 349.4,200 85.7,112.3 121.5,251.3 100.9,391.2 -39.2,264.9 -269.6,454.7 -536.7,442.7 -624.7,-29.3 -1482.7,-38.4 -2052.4,81.2 -58.7,-69.4 -152.1,-354.2 -116.7,-661.7 10.1,-87.4 47.4,-296.4 176.4,-348.6 m 1131,-486.8 c -448.2,0 -899.6,47.8 -1251.1,190.1 -426.5,172.7 -440.5,847.6 -315.5,1249.3 123,395.6 331.6,395.1 415.8,376.4 534.7,-118.6 1381.5,-109.1 1997.5,-80.3 431.7,20.4 804.9,-287.3 868.2,-715.5 33.4,-226.1 -24.5,-450.6 -163.1,-632.2 -138.3,-181.2 -339.1,-296.1 -565.3,-323.5 -295.1,-35.7 -639.9,-64.3 -986.5,-64.3"
         style="fill:#371a45;fill-opacity:1;fill-rule:nonzero;stroke:none"
         id="path66" /><path
         d="m 22686.6,16663.4 v -2117.2 c 0,-392.8 -321.5,-714.4 -714.4,-714.4 H 18073 c -392.2,0 -713.8,321.6 -713.8,714.4 v 2117.2 c 0,392.8 321.6,713.9 713.8,713.9 h 3899.2 c 231.3,0 437.7,-111.4 568.7,-283 91.3,-119.9 145.7,-269.3 145.7,-430.9"
         style="fill:#ffffff;fill-opacity:1;fill-rule:nonzero;stroke:none"
         id="path68" /><path
         d="m 21931.4,13991.9 h -3817.1 c -328.1,0 -595.1,267 -595.1,595.1 v 515.3 c 466.2,-542.3 1439.9,-801.3 2364.9,-801.3 162.5,0 323.4,7.9 479.9,23.8 260.8,26.4 447.4,274.2 385.1,528.9 -18.5,76 -28.5,156.6 -28.5,240 0,141.5 28.7,274.8 79.4,391.7 55.6,-283 305,-496.5 604.2,-496.5 310.8,0 567.9,230.4 609.8,529.7 0.5,3.7 1,7.4 1.5,11.1 45.2,-87.9 76.5,-189.8 87.2,-305.5 5.8,-62 55.8,-95.7 105.3,-95.7 41,0 81.7,23.1 96.9,72.3 110.4,357.7 187.6,880 221.5,1307.4 V 14587 c 0,-328.1 -266.9,-595.1 -595,-595.1"
         style="fill:#b9afbe;fill-opacity:1;fill-rule:nonzero;stroke:none"
         id="path70" /><path
         d="m 18114.3,17217.4 c -328.1,0 -595.1,-266.9 -595.1,-595.1 V 14587 c 0,-328.1 267,-595.1 595.1,-595.1 h 3817.1 c 328.1,0 595,267 595,595.1 v 2035.3 c 0,328.2 -266.9,595.1 -595,595.1 h -3817.1 m 3817.1,-3545.5 h -3817.1 c -504.6,0 -915.1,410.5 -915.1,915.1 v 2035.3 c 0,504.6 410.5,915.1 915.1,915.1 h 3817.1 c 504.5,0 915.1,-410.5 915.1,-915.1 V 14587 c 0,-504.6 -410.6,-915.1 -915.1,-915.1"
         style="fill:#371a45;fill-opacity:1;fill-rule:nonzero;stroke:none"
         id="path72" /><path
         d="m 22019.9,15604.7 c 0,-340.1 -275.6,-615.8 -615.7,-615.8 -340.1,0 -615.7,275.7 -615.7,615.8 0,340 275.6,615.7 615.7,615.7 340.1,0 615.7,-275.7 615.7,-615.7"
         style="fill:#22a7f0;fill-opacity:1;fill-rule:nonzero;stroke:none"
         id="path74" /><path
         d="m 22020,15604.5 c 0,-33.4 -2.5,-66.1 -8,-98.1 -46.8,293.6 -301.2,517.8 -607.8,517.8 -306.7,0 -561,-224.2 -607.9,-517.8 -5.4,32 -8,64.7 -8,98.1 0,340.1 275.8,615.9 615.9,615.9 340.1,0 615.8,-275.8 615.8,-615.9"
         style="fill:#ffffff;fill-opacity:1;fill-rule:nonzero;stroke:none"
         id="path76" /><path
         d="m 21404.1,14989.2 c -306.9,0 -561.3,224.5 -608,518.3 0.1,-0.4 0.2,-0.7 0.2,-1.1 12.9,80.8 41.6,156.4 82.7,223.5 107.7,-176.8 302.7,-294.6 525.1,-294.6 222.5,0 417.5,117.9 525.2,294.6 41.1,-67 69.8,-142.4 82.7,-223.2 -47,-293.4 -301.2,-517.5 -607.9,-517.5"
         style="fill:#2976b4;fill-opacity:1;fill-rule:nonzero;stroke:none"
         id="path78" /><path
         d="m 20796.3,15506.4 c 0,0.4 -0.1,0.7 -0.2,1.1 -5,31.7 -7.6,64.2 -7.6,97.3 0,78.7 14.8,153.7 42.2,222.8 13.2,-34.2 29.4,-66.9 48.3,-97.7 -41.1,-67.1 -69.8,-142.7 -82.7,-223.5 m 1215.7,0.3 c -12.9,80.8 -41.6,156.2 -82.7,223.2 18.9,30.9 35,63.6 48.2,97.7 27.5,-69.1 42.3,-144.1 42.3,-222.8 0,-33.4 -2.7,-66.1 -7.8,-98.1"
         style="fill:#b9afbe;fill-opacity:1;fill-rule:nonzero;stroke:none"
         id="path80" /><path
         d="m 21404.2,16100.4 c -273.4,0 -495.7,-222.4 -495.7,-495.7 0,-273.4 222.3,-495.8 495.7,-495.8 273.4,0 495.8,222.4 495.8,495.8 0,273.3 -222.4,495.7 -495.8,495.7 z m 0,-1231.4 c -405.7,0 -735.7,330 -735.7,735.7 0,405.7 330,735.7 735.7,735.7 405.7,0 735.8,-330 735.8,-735.7 0,-405.7 -330.1,-735.7 -735.8,-735.7"
         style="fill:#371a45;fill-opacity:1;fill-rule:nonzero;stroke:none"
         id="path82" /><path
         d="m 19659.3,13671.9 c -88.4,0 -160,71.7 -160,160 V 14980 c 0,176.5 -84.2,345.3 -225.2,451.5 l -201.9,151.9 c -220.9,166.3 -352.7,430.6 -352.7,707.1 v 1086.9 c 0,88.4 71.6,160 160,160 88.3,0 160,-71.6 160,-160 v -1086.9 c 0,-176.5 84.2,-345.3 225.2,-451.4 l 201.8,-152 c 220.9,-166.3 352.8,-430.6 352.8,-707.1 v -1148.1 c 0,-88.3 -71.7,-160 -160,-160"
         style="fill:#371a45;fill-opacity:1;fill-rule:nonzero;stroke:none"
         id="path84" /><path
         d="m 18038,22086.6 c 0,0 -627.5,832.1 -1584.8,0 H 18038"
         style="fill:#ffffff;fill-opacity:1;fill-rule:nonzero;stroke:none"
         id="path86" /><path
         d="m 17185.8,20322.8 h -2241.6 c -54.3,0 -105,27.6 -134.4,73.3 -29.5,45.7 -33.7,103.2 -11.3,152.7 26.2,58 653.7,1427.5 1575.2,2053.8 73.1,49.7 172.6,30.7 222.3,-42.3 49.7,-73.1 30.7,-172.6 -42.4,-222.3 -634.3,-431.1 -1136.4,-1287.3 -1350.8,-1695.1 h 1983 c 88.3,0 160,-71.7 160,-160.1 0,-88.3 -71.7,-160 -160,-160"
         style="fill:#371a45;fill-opacity:1;fill-rule:nonzero;stroke:none"
         id="path88" /><path
         d="M 25600.5,20322.8 H 23359 c -88.4,0 -160,71.7 -160,160 0,88.4 71.6,160.1 160,160.1 h 1983 c -214.5,407.8 -716.6,1264 -1350.8,1695.1 -73.1,49.7 -92.1,149.2 -42.4,222.3 49.7,73 149.2,92.1 222.3,42.3 921.5,-626.3 1548.9,-1995.8 1575.2,-2053.8 22.4,-49.5 18.1,-107 -11.3,-152.7 -29.5,-45.7 -80.1,-73.3 -134.5,-73.3"
         style="fill:#371a45;fill-opacity:1;fill-rule:nonzero;stroke:none"
         id="path90" /><path
         d="m 26193.1,25653.6 -69.2,-5.2 c -64.2,-4.8 -120.1,43.4 -124.9,107.6 l -263.9,3532.9 c -4.8,64.2 43.4,120.1 107.5,124.9 l 69.3,5.1 c 673.3,50.3 1259.9,-454.7 1310.2,-1128 l 99.1,-1327.1 c 50.3,-673.3 -454.7,-1259.9 -1128.1,-1310.2"
         style="fill:#ffffff;fill-opacity:1;fill-rule:nonzero;stroke:none"
         id="path92" /><path
         d="m 26003.8,29393.6 c -29.7,0 -59.6,-1.1 -89.8,-3.3 l -69.2,-5.2 c -48.3,-3.6 -84.6,-45.8 -81,-94.1 l 263.9,-3532.9 c 3.6,-48.3 46.3,-85.1 94.1,-81 l 69.2,5.2 c 318,23.7 607.7,169.9 815.7,411.6 208.1,241.6 309.6,549.8 285.9,867.8 l -99.2,1327 c -46.8,626.3 -571.4,1104.9 -1189.6,1104.9 m 111.3,-3774.2 c -75.2,0 -139.1,58.2 -144.8,134.4 l -263.8,3533 c -6,79.9 54.1,149.7 134,155.6 l 69.2,5.2 c 687.8,51.8 1289.7,-466.5 1341.1,-1154.6 l 99.1,-1327 c 24.9,-333.3 -81.5,-656.4 -299.6,-909.7 -218,-253.2 -521.7,-406.4 -855,-431.3 l -69.2,-5.2 c -3.7,-0.3 -7.3,-0.4 -11,-0.4"
         style="fill:#371a45;fill-opacity:1;fill-rule:nonzero;stroke:none"
         id="path94" /><path
         d="m 26238.8,25819 c 41.1,213.7 69.5,430.1 85.1,648.4 7,68.4 12.9,137.6 17.6,206.7 340.8,83.8 624.5,302.2 796.7,592.2 l 23.5,-314.4 c 42.2,-564.9 -367.6,-1061.2 -922.9,-1132.9"
         style="fill:#b9afbe;fill-opacity:1;fill-rule:nonzero;stroke:none"
         id="path96" /><path
         d="m 25897.9,29257.4 257.4,-3446.2 25.9,2 c 584.3,43.6 1024.1,554.5 980.5,1138.7 l -99.1,1327.1 c -43.7,584.2 -554,1024 -1138.8,980.4 l -25.9,-2 m 217.2,-3769.3 c -143.2,0 -264.8,110.9 -275.6,255.9 l -263.9,3533 c -11.4,152.1 103.1,285 255.1,296.3 l 69.3,5.2 c 759.7,57.1 1424.8,-515.5 1481.6,-1275.7 l 99.2,-1327.1 c 56.8,-760.2 -515.5,-1424.9 -1275.7,-1481.6 v 0 l -69.3,-5.2 c -6.9,-0.5 -13.9,-0.8 -20.7,-0.8"
         style="fill:#371a45;fill-opacity:1;fill-rule:nonzero;stroke:none"
         id="path98" /><path
         d="m 14163.9,28541.4 69.2,5.2 c 64.2,4.8 120.1,-43.4 124.9,-107.5 l 263.9,-3533 c 4.8,-64.1 -43.3,-120.1 -107.5,-124.9 l -69.3,-5.1 c -673.3,-50.3 -1259.9,454.7 -1310.1,1128.1 l -99.2,1327 c -50.3,673.3 454.8,1259.9 1128.1,1310.2"
         style="fill:#ffffff;fill-opacity:1;fill-rule:nonzero;stroke:none"
         id="path100" /><path
         d="m 14166,28512.8 c -317.9,-23.8 -607.6,-170 -815.7,-411.6 -208.1,-241.6 -309.6,-549.9 -285.8,-867.8 l 99.1,-1327.1 c 23.8,-318 169.9,-607.7 411.6,-815.7 241.6,-208.1 550.1,-309.6 867.8,-285.9 l 69.2,5.2 c 23.4,1.8 44.7,12.5 60,30.3 15.3,17.7 22.8,40.4 21.1,63.8 l -263.9,3532.9 c -1.8,23.4 -12.5,44.7 -30.3,60 -17.8,15.3 -40.5,22.7 -63.8,21 l -69.3,-5.1 m 186.1,-3768.9 c -299.2,0 -585.3,105.8 -814.4,303.1 -253.3,218 -406.5,521.7 -431.4,855 l -99.1,1327.1 c -24.9,333.3 81.5,656.3 299.5,909.6 218.1,253.3 521.7,406.5 855,431.4 l 69.3,5.2 c 38.8,2.6 76.2,-9.5 105.6,-34.8 29.4,-25.4 47.2,-60.6 50.1,-99.3 l 263.9,-3532.9 c 2.9,-38.7 -9.5,-76.2 -34.8,-105.6 -25.3,-29.5 -60.6,-47.2 -99.3,-50.1 l -69.2,-5.2 c -31.8,-2.3 -63.6,-3.5 -95.2,-3.5"
         style="fill:#371a45;fill-opacity:1;fill-rule:nonzero;stroke:none"
         id="path102" /><path
         d="m 14353.5,24932.7 c -550.8,0 -1017.4,425.9 -1059,983.4 l -22.9,306.4 c 219.1,-239.6 527.2,-394.8 866.9,-416.4 63.9,-299.5 149.6,-590.9 255.3,-872.7 -13.5,-0.5 -26.9,-0.7 -40.3,-0.7"
         style="fill:#b9afbe;fill-opacity:1;fill-rule:nonzero;stroke:none"
         id="path104" /><path
         d="m 14201.7,28383.8 -25.9,-1.9 c -584.2,-43.7 -1024.1,-554.5 -980.4,-1138.8 l 99.1,-1327 c 43.6,-584.3 553.9,-1024 1138.7,-980.5 l 25.9,2 -257.4,3446.2 m 150.2,-3771.2 c -330.6,0 -646.7,117 -899.9,334.9 -279.8,241 -449.1,576.5 -476.6,944.7 l -99.1,1327.1 c -56.8,760.2 515.5,1424.9 1275.7,1481.7 v 0 l 69.2,5.1 c 73.5,5.7 145.1,-18 201,-66.2 56,-48.2 89.9,-115.3 95.4,-189 l 263.9,-3532.8 c 5.5,-73.7 -18,-145.1 -66.2,-201.1 -48.2,-56 -115.3,-89.8 -189,-95.3 l -69.2,-5.2 c -35.2,-2.6 -70.3,-3.9 -105.2,-3.9"
         style="fill:#371a45;fill-opacity:1;fill-rule:nonzero;stroke:none"
         id="path106" /><path
         d="m 21934.4,20643 h -3185.1 c -19.3,77.5 -41.2,150.5 -65.7,218.5 h 3321 c -26.1,-66.1 -49.6,-139.3 -70.2,-218.5 m 278.1,538.5 h -256 c 774.5,233.2 1485.3,614.4 2099.3,1110.8 134.1,-98.6 262,-215.3 381.9,-341.6 -167.1,-208.6 -348.3,-404.9 -542.1,-587.2 -142.9,15.2 -297.4,22.2 -453.1,22.2 -476.3,0 -963.5,-65.3 -1162.6,-160.9 -23.2,-11.2 -45.7,-25.7 -67.4,-43.3 m -5911.2,290.5 c -110.4,109.7 -216.2,223.9 -317.5,342.5 127.2,147 264.9,285.9 410.9,404.8 37.4,-29.1 75.5,-58 113.6,-86.3 -18.2,-14.9 -36.6,-30.3 -55.1,-46.4 h 118.6 c 295.2,-213.2 609.9,-400.8 940.9,-559.9 -141.9,11.5 -291,17.8 -439.6,17.8 -275.3,0 -548.9,-21.7 -771.8,-72.5"
         style="fill:#b9afbe;fill-opacity:1;fill-rule:nonzero;stroke:none"
         id="path108" /><path
         d="m 22004.6,20861.5 h -3321 c -38.2,105.7 -82.7,199.1 -133.5,277.5 519.2,-142.1 1065.3,-218 1628.8,-218 7.3,0 15.1,0 22.4,0 609.9,2.2 1198.9,93.1 1755.2,260.5 h 256 c -81.3,-66.1 -151,-176.4 -207.9,-320"
         style="fill:#371a45;fill-opacity:1;fill-rule:nonzero;stroke:none"
         id="path110" /><path
         d="m 15779.8,22068.1 c -62.7,82.6 -123.3,167.1 -181.7,253.3 95.7,113.7 203.9,216.5 322.7,306.1 72.4,-68.9 146.3,-136.1 222,-201.6 -128.3,-109.1 -249.7,-230.6 -363,-357.8"
         style="fill:#b9afbe;fill-opacity:1;fill-rule:nonzero;stroke:none"
         id="path112" /><path
         d="m 15598.1,22321.4 c -32.4,48 -64.2,96.5 -95.2,145.5 89.4,102.5 188.6,196.4 295.8,280.2 40.2,-40.5 80.8,-80.2 122.1,-119.6 -118.8,-89.6 -227,-192.4 -322.7,-306.1"
         style="fill:#371a45;fill-opacity:1;fill-rule:nonzero;stroke:none"
         id="path114" /><path
         d="m 24633.4,22209.2 c -103.9,106.3 -213.5,206.3 -328.3,295.7 44.8,40.3 88.9,81.1 132.5,122.7 107.6,-81.2 206.6,-173.3 295.4,-274.5 -32.5,-48.5 -65.7,-96.5 -99.6,-143.9"
         style="fill:#b9afbe;fill-opacity:1;fill-rule:nonzero;stroke:none"
         id="path116" /><path
         d="m 24733,22353.1 c -88.8,101.2 -187.8,193.3 -295.4,274.5 41.2,39.3 81.9,79.2 122.1,119.6 96.1,-75.1 185.7,-158.2 267.6,-248.3 -30.7,-49.1 -62.2,-97.7 -94.3,-145.8"
         style="fill:#371a45;fill-opacity:1;fill-rule:nonzero;stroke:none"
         id="path118" /><path
         d="m 16571.8,22086.6 h -118.6 c 18.5,16.1 36.9,31.5 55.1,46.4 21.1,-15.6 42.2,-31.1 63.5,-46.4"
         style="fill:#b9afbe;fill-opacity:1;fill-rule:nonzero;stroke:none"
         id="path120" /><path
         d="m 15983.8,21814.5 c -37.1,43.4 -73.5,87.5 -109.3,132 -32.1,40.1 -63.6,80.6 -94.7,121.6 113.3,127.2 234.7,248.7 363,357.8 82,-70.9 166.1,-140 251.9,-206.6 -146,-118.9 -283.7,-257.8 -410.9,-404.8"
         style="fill:#371a45;fill-opacity:1;fill-rule:nonzero;stroke:none"
         id="path122" /><path
         d="m 24437.7,21950.7 c -119.9,126.3 -247.8,243 -381.9,341.6 84.9,68.6 168.2,139.6 249.3,212.6 114.8,-89.4 224.4,-189.4 328.3,-295.7 -29.6,-41.5 -59.8,-82.5 -90.5,-123.1 -34.4,-45.7 -69.5,-90.8 -105.2,-135.4"
         style="fill:#371a45;fill-opacity:1;fill-rule:nonzero;stroke:none"
         id="path124" /><path
         d="m 26195.8,27119 c 11.8,-3322.8 -2672.2,-6026.1 -5995.1,-6038 -3322.8,-11.8 -6026.1,2672.3 -6038,5995.1 -11.8,3322.8 2672.2,6026.1 5995.1,6038 3322.8,11.8 6026.1,-2672.2 6038,-5995.1"
         style="fill:#ffffff;fill-opacity:1;fill-rule:nonzero;stroke:none"
         id="path126" /><path
         d="m 20179.6,33085.4 c -7.3,0 -14.5,0 -21.7,0 -3301.7,-11.8 -5978.2,-2707.5 -5966.4,-6009.2 11.7,-3294.4 2695.7,-5966.5 5987.4,-5966.5 7.3,0 14.5,0 21.7,0.1 3301.7,11.8 5978.2,2707.5 5966.5,6009.2 -11.8,3294.4 -2695.8,5966.4 -5987.5,5966.4 m -0.7,-12033.1 c -3323.6,0 -6033,2697.5 -6044.9,6023.7 -11.9,3333.4 2690.3,6054.9 6023.7,6066.8 7.1,0.1 14.8,0.1 21.9,0.1 3323.6,0 6033.1,-2697.5 6044.9,-6023.7 11.9,-3333.4 -2690.3,-6055 -6023.7,-6066.9 -7.1,0 -14.8,0 -21.9,0"
         style="fill:#371a45;fill-opacity:1;fill-rule:nonzero;stroke:none"
         id="path128" /><path
         d="m 20178.9,21241 c -1349.2,0 -2593.9,458.9 -3585.8,1229.3 911.6,-457.3 2146.7,-841.9 3469.4,-841.8 62.1,0 124.5,0.8 186.9,2.6 1470.6,40.6 2735,462 3647.7,944.6 -1006.6,-829.3 -2294,-1329.6 -3696.9,-1334.7 -7.2,0 -14.2,0 -21.3,0"
         style="fill:#b9afbe;fill-opacity:1;fill-rule:nonzero;stroke:none"
         id="path130" /><path
         d="m 20179.6,32954.1 c -7.1,0 -14.2,0 -21.3,0 -3229.3,-11.5 -5847.1,-2648.1 -5835.6,-5877.4 11.5,-3222.2 2636.7,-5835.7 5856.2,-5835.7 7.1,0 14.1,0 21.3,0 3229.2,11.6 5847.1,2648.2 5835.6,5877.5 -11.5,3222.2 -2636.6,5835.6 -5856.2,5835.6 m -0.7,-12033.1 c -3395.8,0 -6164,2756.1 -6176.2,6154.5 -12.1,3405.8 2748.7,6186.4 6154.5,6198.6 3404.1,11.5 6186.4,-2748.7 6198.6,-6154.5 12.1,-3405.7 -2748.8,-6186.4 -6154.5,-6198.6 -7.3,0 -15.1,0 -22.4,0"
         style="fill:#371a45;fill-opacity:1;fill-rule:nonzero;stroke:none"
         id="path132" /><path
         d="m 26177.1,26964.4 c 22,-1177.1 -339.7,-2277.1 -976.4,-3193.5 -477.2,-687.1 -2469.1,-1911.1 -4955.7,-1979.9 -2305.6,-63.8 -4426.6,1126.5 -4929.2,1795.2 -670.4,892 -1073,1977.8 -1095,3154.9 -58.1,3115.1 2594.1,4456.5 5895.9,4518.1 3301.7,61.7 6002.2,-1179.7 6060.4,-4294.8"
         style="fill:#371a45;fill-opacity:1;fill-rule:nonzero;stroke:none"
         id="path134" /><path
         d="m 20348.8,31101.4 c -75.9,0 -152.1,-0.7 -229.2,-2.1 -1749.3,-32.7 -5810.4,-522.5 -5738.8,-4355.2 20.7,-1105.3 388.2,-2164 1062.9,-3061.7 466.5,-620.7 2442.1,-1733.8 4621.8,-1733.9 58.4,0 116.5,0.8 175.1,2.4 2491.8,69 4403.4,1299 4828.7,1911.3 640.7,922.2 968.5,1994 947.8,3099.3 -26.4,1414.9 -611.6,2493.7 -1739.4,3206.4 -968.8,612.2 -2323.7,933.5 -3928.9,933.5 m -286.3,-9472.9 c -2314.2,-0.1 -4360.2,1177.1 -4874.7,1861.6 -715.3,951.9 -1105,2075 -1126.9,3248 -28.6,1529.4 562.7,2720.1 1757.4,3539.1 1041.8,714.1 2527.1,1109 4295.4,1142 1767.8,33.6 3267.3,-306.1 4335,-980.8 1224.4,-773.8 1859.8,-1941.6 1888.3,-3471 22,-1173 -325.5,-2309.9 -1004.9,-3287.8 -471.2,-678.3 -2445.8,-1975.6 -5082.7,-2048.5 -62.4,-1.8 -124.8,-2.6 -186.9,-2.6"
         style="fill:#371a45;fill-opacity:1;fill-rule:nonzero;stroke:none"
         id="path136" /><path
         d="m 24146.9,26293 c -30.2,0 -60.5,2.4 -90.9,7.3 -420.6,68.1 -685.4,593.9 -591.3,1174.4 87.2,538.6 452.6,935 840.9,935 30.2,0 60.6,-2.4 90.9,-7.3 339.9,-55.1 578.1,-409 607.3,-849.2 -40.4,-261.2 -95.8,-518.1 -165.3,-769.6 -162,-298.5 -421.3,-490.6 -691.6,-490.6"
         style="fill:#c3bac7;fill-opacity:1;fill-rule:nonzero;stroke:none"
         id="path138" /><path
         d="m 23284.2,24741.7 c -35.9,0 -72,5.2 -107.6,16.2 -221.3,68.3 -336.2,332.7 -256.7,590.6 66.8,216.5 249.4,359.6 437.2,359.6 35.9,0 72.1,-5.2 107.6,-16.2 221.4,-68.3 336.3,-332.7 256.7,-590.6 -66.8,-216.5 -249.3,-359.6 -437.2,-359.6"
         style="fill:#c3bac7;fill-opacity:1;fill-rule:nonzero;stroke:none"
         id="path140" /><path
         d="m 20065.5,21948.5 c -642.9,0.1 -1268.3,97 -1842.3,249.5 2839.8,266 5057.8,1662.2 5620.2,2471.7 445.5,641.4 784.9,1353.6 995.1,2113.9 70.7,130.3 122.9,280.8 149.4,444.4 18,111.3 22.8,220.7 15.9,325.2 59,381.3 86,772 78.5,1169.6 -5.4,298.5 -30.3,583.4 -73,855.2 649.6,-672.1 987.9,-1548.6 1007.8,-2616.5 20.7,-1105.3 -307.1,-2177.1 -947.8,-3099.3 -425.3,-612.3 -2336.9,-1842.3 -4828.7,-1911.3 -58.6,-1.6 -116.7,-2.4 -175.1,-2.4"
         style="fill:#2a1a3b;fill-opacity:1;fill-rule:nonzero;stroke:none"
         id="path142" /><path
         d="m 20064.5,21788.3 c -813.9,0 -1599.7,152.2 -2293.9,377.3 152.5,7.5 303.4,18.4 452.6,32.4 574,-152.5 1199.4,-249.4 1842.3,-249.5 58.4,0 116.5,0.8 175.1,2.4 2491.8,69 4403.4,1299 4828.7,1911.3 640.7,922.2 968.5,1994 947.8,3099.3 -19.9,1067.9 -358.2,1944.4 -1007.8,2616.5 -14.4,91.7 -30.8,182 -49.2,270.8 743.8,-683.7 1193.4,-1633.1 1216.9,-2884.2 22,-1177.4 -339.9,-2277.3 -976.1,-3193.7 -477.4,-687.1 -2469.5,-1911.1 -4956,-1980.1 -60.2,-1.7 -120.4,-2.5 -180.4,-2.5"
         style="fill:#2a1a3b;fill-opacity:1;fill-rule:nonzero;stroke:none"
         id="path144" /><path
         d="m 24838.5,26783.6 c 69.5,251.5 124.9,508.4 165.3,769.6 6.9,-104.5 2.1,-213.9 -15.9,-325.2 -26.5,-163.6 -78.7,-314.1 -149.4,-444.4"
         style="fill:#858290;fill-opacity:1;fill-rule:nonzero;stroke:none"
         id="path146" /><path
         d="m 14621.6,29246.4 c -35.7,0 -71.7,11.9 -101.4,36.3 -65.2,53.8 -77.3,148 -29,215.8 1027.8,1571 3060.3,2499.1 5577.2,2546.1 2498.8,47 4563.5,-775.2 5665.8,-2254.8 49,-58 51.2,-144.4 1.3,-205 -56.2,-68.2 -157,-78 -225.3,-21.8 l -15.1,12.5 -12.5,16.4 c -1038.6,1400.2 -3010.3,2177.6 -5408.2,2132.8 -2411.7,-45.1 -4350.1,-921.9 -5318.1,-2405.5 l -10.5,-14.3 c -31.7,-38.5 -77.8,-58.5 -124.2,-58.5"
         style="fill:#371a45;fill-opacity:1;fill-rule:nonzero;stroke:none"
         id="path148" /><path
         d="m 15598,24913.1 c 0,0 -1022.2,3055 611.1,4310.5 1237.3,951.2 2904.9,1204.5 3617.7,1204.5 228.1,0 358.4,-25.9 345.6,-63.2 0,0 -2626,-687.9 -3619.1,-2792.6 -765.9,-1623 -955.3,-2659.2 -955.3,-2659.2"
         style="fill:#c3bac7;fill-opacity:1;fill-rule:nonzero;stroke:none"
         id="path150" /><path
         d="m 31928.9,20008.4 c 0,-430.8 -18.4,-835.6 -50.8,-1187.6 -70,-761.2 -205.6,-1276.8 -360.8,-1276.8 h -834 v 4928.4 h 834 c 86.8,0 167.2,-160.8 233.2,-435.2 108,-444.4 178.4,-1187.6 178.4,-2028.8"
         style="fill:#afafaf;fill-opacity:1;fill-rule:nonzero;stroke:none"
         id="path152" /><path
         d="m 31344.5,21221.2 c 0,0 -115.2,903.6 -329.2,943.6 -8.8,1.6 -17.3,2.4 -25.7,2.4 -45.5,0 -85.2,-23.2 -119.6,-60.1 -8.5,70.1 -17.4,138.5 -26.8,205.3 h 640.7 c 20.4,-27.4 43.9,-80.3 68.5,-158.2 -29.3,11.5 -56.4,18.2 -79.8,18.2 -47.6,0 -79.8,-27.7 -83.3,-99.6 -10.8,-223.6 -44.8,-851.6 -44.8,-851.6"
         style="fill:#d7d7d7;fill-opacity:1;fill-rule:nonzero;stroke:none"
         id="path154" /><path
         d="m 31483.9,17704 h -640.7 c 45.5,324.5 80.6,689.3 104.3,1080 76,-58.8 139.1,-84.5 191.6,-84.5 264.9,0 260.9,653 283.1,997.8 0,0 121.4,-121.4 127.1,-862 1.1,-142 70.3,-218.4 145.5,-224 -62.1,-519.2 -150.2,-825.8 -210.9,-907.3"
         style="fill:#857b8a;fill-opacity:1;fill-rule:nonzero;stroke:none"
         id="path156" /><path
         d="m 30843.1,17704 h 640.8 c 103.2,138.4 285.1,926.8 285.1,2304.2 0,1377.5 -181.9,2165.8 -285.1,2304.2 h -640.8 V 17704 m 674,-320 h -994 v 5248.5 h 994 c 214.5,0 348.8,-255.9 449.1,-855.4 79.2,-473.9 122.9,-1102.1 122.9,-1768.9 0,-666.6 -43.7,-1294.8 -122.9,-1768.8 -100.3,-599.6 -234.6,-855.4 -449.1,-855.4"
         style="fill:#371a45;fill-opacity:1;fill-rule:nonzero;stroke:none"
         id="path158" /><path
         d="m 30823.3,20008.4 c 0,-478.8 -15.6,-936 -44.4,-1352.8 -89.2,-1293.2 -302,-2203.6 -550,-2203.6 h -1203.6 v 7112.4 h 1203.6 c 130,0 250.8,-250.4 348.4,-675.6 149.2,-646 246,-1695.6 246,-2880.4"
         style="fill:#afafaf;fill-opacity:1;fill-rule:nonzero;stroke:none"
         id="path160" /><path
         d="m 30081,21811.8 c 0.3,199.8 -109.4,949.4 -225.8,1108.2 -97.8,133.4 -199.7,176.4 -301.3,176.4 -85.8,0 -171.6,-30.7 -254.7,-63.4 -29.5,139.7 -61.2,264.2 -94.6,371.5 h 1008.7 c 45.8,-36.5 103.5,-159.3 162.1,-368.7 -52.4,27.2 -99.6,41.7 -137.6,41.7 -55.9,0 -91.8,-31.5 -95.2,-100.4 -17.6,-356.4 -41.7,-1162 -61.6,-1165.3"
         style="fill:#d7d7d7;fill-opacity:1;fill-rule:nonzero;stroke:none"
         id="path162" /><path
         d="m 30213.3,16611.9 h -1012.1 c 129.7,410.1 233.1,1077.9 291.2,1889.4 29.1,-4.6 59.5,-7 91.2,-7 42.7,0 87.6,4.4 134.9,14.1 464.8,95.2 564.9,1683.2 564.9,1683.2 0,0 40.1,-342.1 68.2,-711.6 30.6,-402.4 -4.3,-660.4 75.7,-838.8 33.7,-75.2 79.3,-106.7 132.1,-106.7 16.7,0 34.1,3.1 52,9 -91.4,-1197.2 -282.4,-1839.4 -398.1,-1931.6"
         style="fill:#857b8a;fill-opacity:1;fill-rule:nonzero;stroke:none"
         id="path164" /><path
         d="m 29185.2,16611.9 h 1028.1 c 156.3,124.6 450,1252.5 450,3396.3 0,2143.9 -293.7,3271.8 -450,3396.3 h -1028.1 v -6792.6 m 1043.5,-320 h -1363.5 v 7432.6 h 1363.5 c 177.7,0 404,-133.5 578.2,-1175.1 113.7,-680.3 176.4,-1582.8 176.4,-2541.2 0,-958.2 -62.7,-1860.7 -176.4,-2541 -174.2,-1041.7 -400.5,-1175.3 -578.2,-1175.3"
         style="fill:#371a45;fill-opacity:1;fill-rule:nonzero;stroke:none"
         id="path166" /><path
         d="m 28242.7,20014.1 c 0,-2123.6 -288.1,-3845.6 -643,-3845.6 -354.8,0 -642.9,1722 -642.9,3845.6 0,2124.1 288.1,3845.7 642.9,3845.7 354.9,0 643,-1721.6 643,-3845.7"
         style="fill:#757575;fill-opacity:1;fill-rule:nonzero;stroke:none"
         id="path168" /><path
         d="m 27900.1,22690.7 c -87.3,365.2 -190.2,576.1 -300.4,576.1 -110,0 -212.9,-210.4 -300,-574.7 97.8,586.7 215.2,917.7 300,997.9 84.9,-80.3 202.5,-411.8 300.4,-999.3"
         style="fill:#bababa;fill-opacity:1;fill-rule:nonzero;stroke:none"
         id="path170" /><path
         d="m 27599.7,16338.3 c -156.8,148.3 -425,1153.9 -474.8,3046.9 h 24.3 c 24.2,-71.6 53.6,-112.4 89.7,-112.4 3.8,0 7.6,0.4 11.5,1.3 31.7,7.3 54.7,48.2 71.7,111.1 h 87 c 33.2,0 65.6,10.3 92.7,29.6 26.4,18.7 257.9,195 257.9,599.3 v 0 0 c 0,149.8 -31.7,268.2 -73.1,359 186.5,-370 16.6,-1125.4 197.8,-1147.6 2.5,-0.3 4.9,-0.4 7.4,-0.4 88,0 146.9,198.7 189.1,490.6 -25.3,-2106.7 -315.4,-3220.7 -481.2,-3377.4"
         style="fill:#5f5564;fill-opacity:1;fill-rule:nonzero;stroke:none"
         id="path172" /><path
         d="m 29544.1,20014 c 0,-480 -14.8,-939.2 -41.6,-1362.8 -92,-1451.2 -326.4,-2482.8 -601.2,-2482.8 h -1301.6 c 307.2,0 564.4,1292.4 628,3018.4 9.6,266.4 14.8,543.2 14.8,827.2 0,1257.6 -100.8,2374 -257.2,3075.6 -107.2,483.2 -240.8,770 -385.6,770 h 1301.6 c 168.4,0 322,-389.2 436.8,-1025.6 126.8,-702.4 206,-1705.6 206,-2820"
         style="fill:#afafaf;fill-opacity:1;fill-rule:nonzero;stroke:none"
         id="path174" /><path
         d="m 28857.7,21503.6 c 0,0 -188,1756.4 -439.2,1871.6 -28.4,13 -56.3,18.9 -83.4,18.9 -85.3,0 -163,-57.5 -226.5,-128.2 -75.8,299.9 -156.4,483.2 -236.3,593.7 h 1029 c 168.4,0 322,-389.2 436.8,-1025.6 -140.7,231 -361.8,565.5 -463.6,565.5 -38.3,0 -59.7,-47.3 -53.6,-165.5 28.4,-536.4 36.8,-1730.4 36.8,-1730.4"
         style="fill:#d7d7d7;fill-opacity:1;fill-rule:nonzero;stroke:none"
         id="path176" /><path
         d="m 28901.3,16168.4 h -1029.2 c 117.6,162.5 236.7,482.4 340,1100.2 74.2,444 128.3,975.7 159.5,1555.5 51.8,-88.5 115.2,-147.9 200.3,-148.8 0.6,0 1.1,0 1.6,0 420.6,0 462.8,1865.9 462.8,1865.9 0,0 0.8,4.1 2.5,4.1 6.9,0 29.6,-67.1 82.2,-745.3 51.6,-664.6 156.1,-1162.4 330.2,-1162.5 16.4,0 33.5,4.5 51.3,13.7 -55.7,-879.1 -163.7,-1604.2 -301.3,-2039.3 -43.2,-136.7 -89.3,-244.8 -137.7,-320 -51.8,-80.6 -106.2,-123.5 -162.2,-123.5"
         style="fill:#857b8a;fill-opacity:1;fill-rule:nonzero;stroke:none"
         id="path178" /><path
         d="m 27599.7,23690 c -173.3,-163.9 -482.9,-1375.6 -482.9,-3675.9 0,-2300.2 309.5,-3511.9 482.9,-3675.8 173.4,163.9 482.9,1375.6 482.9,3675.8 0,2300.3 -309.5,3512 -482.9,3675.9 m 0,-7681.6 c -187,0 -425.6,143.3 -612.3,1260.2 -122.9,734.9 -190.6,1710 -190.6,2745.5 0,1035.7 67.7,2010.9 190.6,2745.8 186.7,1116.7 425.3,1259.9 612.3,1259.9 187,0 425.6,-143.2 612.4,-1259.9 122.9,-734.9 190.6,-1710 190.6,-2745.8 0,-1035.5 -67.7,-2010.6 -190.6,-2745.5 -186.8,-1116.9 -425.4,-1260.2 -612.4,-1260.2"
         style="fill:#371a45;fill-opacity:1;fill-rule:nonzero;stroke:none"
         id="path180" /><path
         d="m 27963.3,16328.5 h 926 c 170.7,117.7 494.8,1331.7 494.8,3685.6 0,2354 -324.1,3568 -494.8,3685.7 h -926 c 86.9,-187.8 172.2,-482 248.8,-939.9 122.9,-734.9 190.6,-1710 190.6,-2745.8 0,-1035.5 -67.7,-2010.6 -190.6,-2745.5 -76.6,-458.1 -161.9,-752.3 -248.8,-940.1 z m 937.9,-320 h -1301.5 v 320 c -9.2,0 -15.8,-2.6 -17.5,-3.5 169.1,94.3 500.4,1309 500.4,3689.1 0,2380.2 -331.3,3594.8 -500.4,3689.2 1.7,-1 8.3,-3.5 17.5,-3.5 v 320 h 1301.5 c 187,0 425.6,-143.2 612.4,-1259.9 122.9,-734.9 190.6,-1710.1 190.6,-2745.8 0,-1035.5 -67.7,-2010.6 -190.6,-2745.5 -186.8,-1116.9 -425.4,-1260.1 -612.4,-1260.1"
         style="fill:#371a45;fill-opacity:1;fill-rule:nonzero;stroke:none"
         id="path182" /><path
         d="m 8468.33,20008.4 c 0,-430.8 18.4,-835.6 50.8,-1187.6 70,-761.2 205.6,-1276.8 360.8,-1276.8 h 834 v 4928.4 h -834 c -86.79,0 -167.19,-160.8 -233.2,-435.2 -108,-444.4 -178.4,-1187.6 -178.4,-2028.8"
         style="fill:#afafaf;fill-opacity:1;fill-rule:nonzero;stroke:none"
         id="path184" /><path
         d="m 9052.74,21221.2 c 0,0 -34.01,628 -44.81,851.6 -3.49,71.9 -35.66,99.6 -83.28,99.6 -23.42,0 -50.58,-6.7 -79.89,-18.2 24.6,77.9 48.13,130.8 68.58,158.2 h 640.68 c -9.37,-66.8 -18.29,-135.2 -26.77,-205.3 -34.42,36.9 -74.14,60.1 -119.6,60.1 -8.37,0 -16.96,-0.8 -25.72,-2.4 -214,-40 -329.19,-943.6 -329.19,-943.6"
         style="fill:#d7d7d7;fill-opacity:1;fill-rule:nonzero;stroke:none"
         id="path186" /><path
         d="m 9554.05,17704 h -640.69 c -60.78,81.5 -148.8,388.1 -210.95,907.3 75.24,5.6 144.47,82 145.55,224 5.65,740.6 127.06,862 127.06,862 22.2,-344.8 18.19,-997.8 283.16,-997.8 52.51,0 115.59,25.7 191.52,84.5 23.69,-390.7 58.81,-755.5 104.35,-1080"
         style="fill:#857b8a;fill-opacity:1;fill-rule:nonzero;stroke:none"
         id="path188" /><path
         d="m 8913.36,17704 h 640.72 v 4608.4 h -640.74 c -103.27,-138.4 -285.19,-926.7 -285.19,-2304.2 0,-1377.4 181.94,-2165.8 285.21,-2304.2 m 12.06,-13.5 h 0.49 -0.49 M 9874.1,17384 h -993.97 c -214.5,0 -348.8,255.8 -449.06,855.4 -79.28,474 -122.93,1102.2 -122.93,1768.8 0,666.8 43.65,1295 122.93,1768.9 100.26,599.5 234.56,855.4 449.06,855.4 H 9874.1 V 17384"
         style="fill:#371a45;fill-opacity:1;fill-rule:nonzero;stroke:none"
         id="path190" /><path
         d="m 9573.93,20008.4 c 0,-478.8 15.6,-936 44.4,-1352.8 89.2,-1293.2 302.01,-2203.6 549.97,-2203.6 h 1203.6 v 7112.4 h -1203.6 c -130,0 -250.77,-250.4 -348.37,-675.6 -149.19,-646 -246,-1695.6 -246,-2880.4"
         style="fill:#afafaf;fill-opacity:1;fill-rule:nonzero;stroke:none"
         id="path192" /><path
         d="m 10316.2,21811.8 c -19.9,3.3 -44,808.9 -61.5,1165.3 -3.4,68.9 -39.4,100.4 -95.3,100.4 -38,0 -85.1,-14.5 -137.6,-41.7 58.6,209.4 116.3,332.2 162.1,368.7 h 1008.8 c -33.5,-107.3 -65.1,-231.8 -94.7,-371.5 -83.1,32.7 -168.8,63.4 -254.7,63.4 -101.6,0 -203.4,-43 -301.2,-176.4 -116.5,-158.8 -226.2,-908.4 -225.9,-1108.2"
         style="fill:#d7d7d7;fill-opacity:1;fill-rule:nonzero;stroke:none"
         id="path194" /><path
         d="m 11196,16611.9 h -1012.1 c -115.7,92.2 -306.7,734.4 -398.1,1931.6 17.97,-5.9 35.37,-9 52.05,-9 52.81,0 98.42,31.5 132.08,106.7 79.97,178.4 45.07,436.4 75.67,838.8 28.1,369.5 68.2,711.6 68.2,711.6 0,0 100.1,-1588 564.9,-1683.2 47.4,-9.7 92.3,-14.2 134.9,-14.1 31.7,0 62.1,2.4 91.3,7 58.1,-811.5 161.4,-1479.3 291.1,-1889.4"
         style="fill:#857b8a;fill-opacity:1;fill-rule:nonzero;stroke:none"
         id="path196" /><path
         d="M 10183.9,16611.9 H 11212 v 6792.6 h -1028.1 c -156.2,-124.5 -449.96,-1252.4 -449.96,-3396.3 0,-2143.8 293.76,-3271.7 449.96,-3396.3 m 7,-4.9 h 0.5 -0.5 m 1341.2,-315.1 h -1363.6 c -177.67,0 -403.97,133.6 -578.16,1175.3 -113.75,680.3 -176.41,1582.8 -176.41,2541 0,958.4 62.66,1860.9 176.41,2541.2 174.19,1041.6 400.46,1175.1 578.16,1175.1 h 1363.6 v -7432.6"
         style="fill:#371a45;fill-opacity:1;fill-rule:nonzero;stroke:none"
         id="path198" /><path
         d="m 12154.6,20014.1 c 0,-2123.6 288,-3845.6 642.9,-3845.6 354.8,0 642.9,1722 642.9,3845.6 0,2124.1 -288.1,3845.7 -642.9,3845.7 -354.9,0 -642.9,-1721.6 -642.9,-3845.7"
         style="fill:#757575;fill-opacity:1;fill-rule:nonzero;stroke:none"
         id="path200" /><path
         d="m 12497.2,22690.7 c 97.8,587.5 215.4,919 300.3,999.3 84.8,-80.2 202.3,-411.3 300.1,-998 -87.2,364.5 -190,574.8 -300.1,574.8 -110.1,0 -213.1,-210.9 -300.3,-576.1"
         style="fill:#bababa;fill-opacity:1;fill-rule:nonzero;stroke:none"
         id="path202" /><path
         d="m 12797.5,16338.3 c -165.7,156.7 -455.9,1270.6 -481.2,3377.6 42.2,-292.1 101.1,-490.9 189.2,-490.8 2.4,0 4.8,0.1 7.3,0.4 199,24.4 -25.4,932.7 263.6,1244.3 -63.8,-96.8 -126.4,-245.4 -126.4,-455.7 v 0 0 c 0,-404.3 231.5,-580.6 257.9,-599.3 27.1,-19.3 59.5,-29.6 92.7,-29.6 h 74.5 c 17,-62.9 40,-103.8 71.7,-111.1 3.9,-0.9 7.8,-1.3 11.6,-1.3 36.1,0 65.4,40.8 89.6,112.4 h 24.3 c -49.7,-1893 -318,-2898.6 -474.8,-3046.9"
         style="fill:#5f5564;fill-opacity:1;fill-rule:nonzero;stroke:none"
         id="path204" /><path
         d="m 10853.1,20014 c 0,-480 14.8,-939.2 41.6,-1362.8 92,-1451.2 326.4,-2482.8 601.2,-2482.8 h 1301.6 c -307.2,0 -564.4,1292.4 -628,3018.4 -9.6,266.4 -14.8,543.2 -14.8,827.2 0,1257.6 100.8,2374 257.2,3075.6 107.2,483.2 240.8,770 385.6,770 h -1301.6 c -168.4,0 -322,-389.2 -436.8,-1025.6 -126.8,-702.4 -206,-1705.6 -206,-2820"
         style="fill:#afafaf;fill-opacity:1;fill-rule:nonzero;stroke:none"
         id="path206" /><path
         d="m 11539.5,21503.6 c 0,0 8.4,1194 36.8,1730.4 6.2,118.2 -15.3,165.5 -53.6,165.5 -101.8,0 -322.9,-334.5 -463.6,-565.5 114.8,636.4 268.4,1025.6 436.8,1025.6 h 1029 c -79.9,-110.5 -160.5,-293.8 -236.3,-593.7 -63.5,70.8 -141.2,128.2 -226.4,128.2 -27.2,0 -55.1,-5.9 -83.5,-18.9 -251.2,-115.2 -439.2,-1871.6 -439.2,-1871.6"
         style="fill:#d7d7d7;fill-opacity:1;fill-rule:nonzero;stroke:none"
         id="path208" /><path
         d="m 12525.1,16168.4 h -1029.2 c -274.8,0 -509.2,1031.6 -601.2,2482.8 17.8,-9.2 34.9,-13.7 51.4,-13.7 174.1,0 278.5,497.9 330.1,1162.5 52.6,678.2 75.3,745.3 82.2,745.3 1.8,0 2.5,-4.1 2.5,-4.1 0,0 42.2,-1866 462.8,-1865.9 0.5,0 1.1,0 1.6,0 85.1,0.9 148.5,60.3 200.3,148.7 31.2,-579.7 85.3,-1111.4 159.5,-1555.4 103.3,-617.8 222.5,-937.7 340,-1100.2"
         style="fill:#857b8a;fill-opacity:1;fill-rule:nonzero;stroke:none"
         id="path210" /><path
         d="m 12797.5,23690 c -173.4,-163.9 -482.9,-1375.6 -482.9,-3675.9 0,-2300.2 309.5,-3511.9 482.9,-3675.8 173.4,163.9 482.9,1375.6 482.9,3675.8 0,2300.3 -309.5,3512 -482.9,3675.9 m 17.6,-7365 h 0.5 -0.5 m -17.6,-316.6 c -187,0 -425.6,143.3 -612.4,1260.2 -122.9,734.9 -190.6,1710 -190.6,2745.5 0,1035.7 67.7,2010.9 190.6,2745.8 186.8,1116.7 425.4,1259.9 612.4,1259.9 187,0 425.6,-143.2 612.3,-1259.9 122.9,-734.9 190.6,-1710.1 190.6,-2745.8 0,-1035.5 -67.7,-2010.6 -190.6,-2745.5 -186.7,-1116.9 -425.3,-1260.2 -612.3,-1260.2"
         style="fill:#371a45;fill-opacity:1;fill-rule:nonzero;stroke:none"
         id="path212" /><path
         d="m 11507.9,16328.5 h 926 c -86.9,187.8 -172.2,482 -248.8,940.1 -122.9,734.9 -190.6,1710 -190.6,2745.5 0,1035.7 67.7,2010.9 190.6,2745.8 76.6,457.9 161.9,752.1 248.8,939.9 h -926 c -170.6,-117.7 -494.8,-1331.7 -494.8,-3685.7 0,-2353.9 324.2,-3567.9 494.8,-3685.6 z m 5.7,-3.5 h 0.5 z m 1283.9,-316.5 H 11496 c -187,0 -425.6,143.2 -612.3,1260.1 -122.9,734.9 -190.6,1710 -190.6,2745.5 0,1035.7 67.7,2010.9 190.6,2745.8 186.7,1116.7 425.3,1259.9 612.3,1259.9 h 1301.5 v -320 c 9.2,0 15.8,2.5 17.5,3.5 -169,-94.4 -500.4,-1309 -500.4,-3689.2 0,-2380.1 331.4,-3594.8 500.4,-3689.1 -1.7,0.9 -8.3,3.5 -17.5,3.5 v -320"
         style="fill:#371a45;fill-opacity:1;fill-rule:nonzero;stroke:none"
         id="path214" /><path
         d="m 16209.6,20483 h -3209 c 0,0 -190.6,-135.5 -190.6,-468.9 0,-333.4 190.6,-468.9 190.6,-468.9 h 3209 11199.5 c 0,0 190.6,135.5 190.6,468.9 0,333.4 -190.6,468.9 -190.6,468.9 H 16209.6"
         style="fill:#afafaf;fill-opacity:1;fill-rule:nonzero;stroke:none"
         id="path216" /><path
         d="m 13065.4,19705.2 h 14279.3 c 36.5,44.7 95,142.5 95,308.9 0,165.6 -58,263.2 -95.3,308.9 H 13065 c -36.5,-44.7 -95,-142.5 -95,-308.9 0,-165.6 58,-263.2 95.4,-308.9 m 14343.7,-320 H 13000.6 c -33.2,0 -65.6,10.3 -92.7,29.6 -26.4,18.7 -257.9,195 -257.9,599.3 0,404.3 231.5,580.6 257.9,599.4 27.1,19.2 59.5,29.5 92.7,29.5 h 14408.5 c 33.2,0 65.6,-10.3 92.7,-29.5 26.4,-18.8 257.9,-195.1 257.9,-599.4 0,-404.3 -231.5,-580.6 -257.9,-599.3 -27.1,-19.3 -59.5,-29.6 -92.7,-29.6"
         style="fill:#371a45;fill-opacity:1;fill-rule:nonzero;stroke:none"
         id="path218" /><path
         d="m 21860.8,19076 h -3041.6 c 11.1,103.6 19.4,206.9 24.9,309.2 h 2991.8 c 5.5,-102 13.7,-205.4 24.9,-309.2"
         style="fill:#b9afbe;fill-opacity:1;fill-rule:nonzero;stroke:none"
         id="path220" /><path
         d="m 16209.6,20483 h -3209 c 0,0 -190.6,-135.5 -190.6,-468.9 0,-333.4 190.6,-468.9 190.6,-468.9 h 3209 11199.5 c 0,0 190.6,135.5 190.6,468.9 0,333.4 -190.6,468.9 -190.6,468.9 H 16209.6"
         style="fill:#0aa9ef;fill-opacity:1;fill-rule:nonzero;stroke:none"
         id="path222" /><path
         d="m 27387.8,20255.3 h -2479.2 c -4.9,22.5 -10,45.1 -15.3,67.7 h 2451.1 c 13,-16 28.6,-38.3 43.4,-67.7 m -5525.7,0 h -3042.8 c -2.8,22.8 -5.8,45.4 -8.9,67.7 h 3060.8 c -3.2,-22.2 -6.2,-44.9 -9.1,-67.7 m -6419.1,0 h -2421.2 c 14.8,29.6 30.3,52 43.2,67.7 h 2392.9 c -5.1,-22.7 -10.1,-45.2 -14.9,-67.7"
         style="fill:#b5e5fa;fill-opacity:1;fill-rule:nonzero;stroke:none"
         id="path224" /><path
         d="m 27344.7,19705.2 h -2340.2 c -11.3,84.7 -28,197.2 -50.7,322.9 h 2455.5 c 0,0 11.7,8.3 29.3,25.9 0.7,-12.9 1.1,-26.1 1.1,-39.9 0,-166.4 -58.5,-264.2 -95,-308.9 m -5516.6,0 h -2975.9 c -0.4,110.3 -4.2,218.1 -11.4,322.9 H 21840 c -7.3,-104.2 -11.3,-212.1 -11.9,-322.9 m -6476.9,0 h -2285.8 c -37.4,45.7 -95.4,143.3 -95.4,308.9 0,13.8 0.4,27.1 1.1,39.9 17.7,-17.6 29.4,-25.9 29.4,-25.9 h 2398.8 c -21.7,-124.5 -37.3,-236.2 -48.1,-322.9"
         style="fill:#1a77b4;fill-opacity:1;fill-rule:nonzero;stroke:none"
         id="path226" /><path
         d="m 13065.4,19705.2 h 14279.3 c 36.5,44.7 95,142.5 95,308.9 0,165.6 -58,263.2 -95.3,308.9 H 13065 c -36.5,-44.7 -95,-142.5 -95,-308.9 0,-165.6 58,-263.2 95.4,-308.9 m 14343.7,-320 H 13000.6 c -33.2,0 -65.6,10.3 -92.7,29.6 -26.4,18.7 -257.9,195 -257.9,599.3 0,404.3 231.5,580.6 257.9,599.4 27.1,19.2 59.5,29.5 92.7,29.5 h 14408.5 c 33.2,0 65.6,-10.3 92.7,-29.5 26.4,-18.8 257.9,-195.1 257.9,-599.4 0,-404.3 -231.5,-580.6 -257.9,-599.3 -27.1,-19.3 -59.5,-29.6 -92.7,-29.6"
         style="fill:#371a45;fill-opacity:1;fill-rule:nonzero;stroke:none"
         id="path228" /><path
         d="m 18619.7,18791.2 c -67.2,-420.4 -183.6,-836.4 -355.2,-1195.2 -624.4,-1304.4 -2272.8,-1603.6 -3472.8,-1053.6 -1050.8,482 -425.2,2575.2 -304.8,2946 12,36.4 18.8,56.4 18.8,56.4 h 988.4 c 0,0 135.2,1362.8 528.8,1649.2 393.6,286 1833.6,214 2215.6,30.8 392.8,-188.4 558,-1325.2 381.2,-2433.6"
         style="fill:#ffffff;fill-opacity:1;fill-rule:nonzero;stroke:none"
         id="path230" /><path
         d="m 16022.8,16438.3 c -0.1,0 -0.2,0 -0.3,0 -403.9,0 -808,86.5 -1164.1,249.7 -794.4,364.1 -467.5,1978.3 -237.6,2697 h 816.2 l -31.1,-309 h -46.7 c -467.9,0 -838.3,-400 -797.4,-866.1 53.5,-611.2 293.8,-1189.2 1293.7,-1189.2 199.5,0 429.1,23 693.6,73.3 857,163.3 1400.8,534.4 1788.6,1148.7 -57.7,-199.3 -129.7,-393.8 -217.6,-577.6 -405.6,-847.6 -1251.3,-1226.8 -2097.3,-1226.8"
         style="fill:#b9afbe;fill-opacity:1;fill-rule:nonzero;stroke:none"
         id="path232" /><path
         d="m 14620.8,19385 c -229.9,-718.7 -556.8,-2332.9 237.6,-2697 356.1,-163.2 760.2,-249.7 1164.1,-249.7 846.2,-0.1 1691.9,379.1 2097.6,1226.8 638.3,1333.8 433.3,3230.9 49.1,3415.4 -354.7,170.2 -1722.5,223.7 -2052.2,-16 -244,-177.4 -413.9,-1035.9 -463.7,-1535.3 l -14.4,-144.2 h -1018.1 m 1399.4,-3265.3 c -450.1,0 -899.2,95.9 -1295.1,277.3 -1272,583 -407.9,3094.3 -370.5,3201 l 37.6,107 h 958.9 c 50.4,403.8 205.6,1347.7 577.8,1618.3 458.5,333.5 1973.9,240 2378.7,45.7 678.2,-325.5 735.8,-2515.9 101.1,-3842.1 -465,-971.6 -1429.2,-1407.2 -2388.5,-1407.2"
         style="fill:#371a45;fill-opacity:1;fill-rule:nonzero;stroke:none"
         id="path234" /><path
         d="m 25726.3,16542.4 c -1199.6,-550 -2848.4,-250.8 -3472.4,1053.6 -624.4,1304.4 -516,3368.8 26,3628.8 381.6,183.2 1821.6,255.2 2215.2,-30.8 393.6,-286.4 528.8,-1649.2 528.8,-1649.2 h 988.8 c 0,0 65.6,-186.8 136.4,-468.8 187.6,-744 414,-2150 -422.8,-2533.6"
         style="fill:#ffffff;fill-opacity:1;fill-rule:nonzero;stroke:none"
         id="path236" /><path
         d="m 24237,16292.5 c -461.8,42.3 -909.6,194.4 -1281.9,463 0,0.1 0,0.2 -0.1,0.3 372.3,-268.8 820.3,-421 1282.1,-463.3 h -0.1 m -1903.3,1151.7 c -0.2,0 -0.3,0.1 -0.5,0.2 -28.1,48.9 -54.7,99.5 -79.7,151.6 -171.6,358.8 -288,774.8 -355.2,1195.2 0.3,-0.6 0.6,-1.3 0.8,-1.9 67.2,-419.7 183.4,-835.1 354.8,-1193.3 25,-52.2 51.6,-102.8 79.8,-151.8"
         style="fill:#b9afbe;fill-opacity:1;fill-rule:nonzero;stroke:none"
         id="path238" /><path
         d="m 22955.1,16755.5 c -48.6,35.1 -95.9,72.2 -141.8,111.2 0,0.1 0,0.2 0,0.3 45.8,-39.1 93.2,-76.2 141.7,-111.2 0.1,-0.1 0.1,-0.2 0.1,-0.3"
         style="fill:#8c7b94;fill-opacity:1;fill-rule:nonzero;stroke:none"
         id="path240" /><path
         d="m 24505.9,16280.3 c -89.9,0 -179.6,4.1 -268.9,12.2 h 0.1 c 89.3,-8.1 179,-12.2 268.9,-12.2 h -0.1"
         style="fill:#371a45;fill-opacity:1;fill-rule:nonzero;stroke:none"
         id="path242" /><path
         d="m 22813.3,16866.7 c -186.8,159.1 -350,351.4 -480.1,577.7 0.2,-0.1 0.3,-0.2 0.5,-0.2 130,-226.2 292.9,-418.2 479.6,-577.2 0,-0.1 0,-0.2 0,-0.3"
         style="fill:#371a45;fill-opacity:1;fill-rule:nonzero;stroke:none"
         id="path244" /><path
         d="m 26325.5,17825.3 c 0,442.9 -89.7,904.3 -173.1,1237.6 83.4,-333.3 173.1,-794.8 173.1,-1237.6"
         style="fill:#13a3ba;fill-opacity:1;fill-rule:nonzero;stroke:none"
         id="path246" /><path
         d="m 24506,16280.3 c -89.9,0 -179.6,4.1 -268.9,12.2 -461.8,42.3 -909.8,194.5 -1282.1,463.3 -48.5,35 -95.9,72.1 -141.7,111.2 -186.7,159 -349.6,351 -479.6,577.2 -28.2,49 -54.8,99.6 -79.8,151.8 -171.4,358.2 -287.6,773.6 -354.8,1193.3 400,-947.2 983.6,-1488.2 2069.6,-1695.3 264.4,-50.3 494.2,-73.3 693.7,-73.3 1000,0 1240.1,578 1293.7,1189.2 40.8,466.1 -329.6,866.1 -797.5,866.1 h -46.7 l -47.2,468.8 h 948 c 0,0 12.4,-36 32.4,-99.6 1.2,-4.8 2.8,-9.6 4.4,-14.4 v 0 0 c 7.2,-22.8 14.8,-48.8 23.6,-77.6 v 0 0 0 0 c 6.8,-22.8 13.6,-47.2 21.2,-73.2 6.4,-22.8 13.2,-46.4 20,-71.6 l 8.4,-31.2 c 4,-14.4 7.6,-28.8 11.6,-43.6 4.8,-18.8 9.6,-38 14.8,-57.6 1.1,-4.4 2.2,-8.7 3.3,-13.1 83.4,-333.3 173.1,-794.7 173.1,-1237.6 0.1,-550.1 -138.3,-1071.4 -599.2,-1282.9 v 0 0 c -377.6,-173.1 -799.7,-262.1 -1220.3,-262.1"
         style="fill:#b9afbe;fill-opacity:1;fill-rule:nonzero;stroke:none"
         id="path248" /><path
         d="m 26073.1,19353.2 c -8.8,28.8 -16.4,54.8 -23.6,77.6 7.2,-22.8 15.2,-48.8 23.6,-77.6"
         style="fill:#b9afbe;fill-opacity:1;fill-rule:nonzero;stroke:none"
         id="path250" /><path
         d="m 14401.1,19200.8 c 7.6,27.6 14.8,54.4 22.4,79.2 -7.2,-24.8 -14.4,-51.2 -22.4,-79.2"
         style="fill:#371a45;fill-opacity:1;fill-rule:nonzero;stroke:none"
         id="path252" /><path
         d="m 14444.7,19353.2 c 8.4,28.8 16.4,54.8 23.6,77.6 -7.2,-22.8 -14.8,-48.8 -23.6,-77.6"
         style="fill:#371a45;fill-opacity:1;fill-rule:nonzero;stroke:none"
         id="path254" /><path
         d="m 23442.5,21226.5 c -446,0 -908.1,-57 -1093.5,-146 -384.2,-184.4 -589.2,-2081.6 49.1,-3415.4 599.2,-1252.3 2159.6,-1482.3 3261.6,-977.1 794.4,364.1 467.5,1978.3 237.6,2697 h -1018.1 l -14.3,144.2 c -49.8,499.4 -219.8,1357.9 -463.8,1535.3 -157.3,114.4 -551.3,162 -958.6,162 z m 1055.4,-5106.8 c -959.3,0 -1923.4,435.5 -2388.5,1407.2 -634.6,1326.3 -577,3516.6 101.1,3842.1 404.8,194.3 1920.2,287.8 2378.8,-45.7 372.1,-270.6 527.3,-1214.5 577.7,-1618.3 h 959 l 37.5,-107 c 37.4,-106.7 901.5,-2618 -370.4,-3200.9 -395.9,-181.5 -845.1,-277.4 -1295.2,-277.4"
         style="fill:#371a45;fill-opacity:1;fill-rule:nonzero;stroke:none"
         id="path256" /><path
         d="m 14983.4,18677.1 c -1.1,2.1 8.8,9 14.1,14.7 l 19.2,18.9 c 12.6,13.8 25.2,27.7 36.9,43.1 23.5,30.4 44.7,63.1 64,97.7 38.2,69.3 69.6,143.6 94.5,222.5 6.8,19.2 12.9,38.9 17.8,59.3 l 17.4,59.8 29.9,122.7 c 8.7,41.8 18.7,83 28.3,124.8 8.6,42.4 17.6,84.6 30.1,126.6 l 3.1,10.1 c 25.3,84.9 114.6,133.2 199.5,107.9 72.5,-21.7 118.3,-90.1 114.3,-162.4 -2.6,-48.8 -8.7,-97.3 -15.4,-145.7 -7.9,-48.4 -20.1,-96.6 -31.1,-144.6 -14.5,-47.7 -28.9,-95.6 -46.8,-142.4 -20.3,-46.8 -37.3,-93.7 -63.3,-138.7 -45.7,-91 -105.7,-178.2 -179.6,-254.7 -36.7,-38.4 -78.5,-73.3 -124.1,-103.5 -23,-14.9 -47.1,-28.9 -72.7,-40.6 -13.4,-5.7 -26.2,-11.3 -40.3,-16.1 -15.1,-4.9 -25.8,-8.3 -48.8,-13.6 -42.6,-12.9 -87.6,11.1 -100.5,53.6 -13,42.6 11,87.6 53.5,100.6"
         style="fill:#371a45;fill-opacity:1;fill-rule:nonzero;stroke:none"
         id="path258" /><path
         d="m 25487.8,18522.9 c -23,5.3 -33.7,8.6 -48.9,13.6 -14,4.8 -26.9,10.4 -40.2,16.1 -25.7,11.7 -49.7,25.6 -72.7,40.5 -45.6,30.3 -87.5,65.1 -124.1,103.6 -74,76.5 -134,163.7 -179.6,254.7 -26,45 -43,91.8 -63.3,138.6 -17.9,46.8 -32.3,94.8 -46.9,142.4 -10.9,48.1 -23.1,96.2 -31.1,144.7 -6.6,48.4 -12.7,96.9 -15.4,145.7 -4.8,88.4 63.1,164 151.5,168.8 75.6,4.1 141.7,-44.8 162.4,-114.2 l 3,-10.2 c 12.6,-42 21.6,-84.3 30.1,-126.6 9.7,-41.8 19.6,-83.1 28.3,-124.9 l 30,-122.6 17.3,-59.8 c 5,-20.5 11,-40.1 17.9,-59.3 24.8,-78.9 56.3,-153.3 94.5,-222.6 19.3,-34.5 40.4,-67.3 64,-97.7 11.7,-15.3 24.2,-29.2 36.9,-43.1 l 19.2,-18.9 c 5.3,-5.6 15.2,-12.5 14,-14.7 42.6,-12.9 66.6,-58 53.6,-100.5 -13,-42.6 -58,-66.6 -100.5,-53.6"
         style="fill:#371a45;fill-opacity:1;fill-rule:nonzero;stroke:none"
         id="path260" /></g></g></svg>
